<svg width="25" height="24" viewBox="0 0 25 24" fill="none" xmlns="http://www.w3.org/2000/svg">
<g clip-path="url(#clip0_143_3008)">
<path fill-rule="evenodd" clip-rule="evenodd" d="M12.0592 0.434964C11.7262 0.542964 11.5342 0.734964 11.4412 1.04846C11.3887 1.22396 11.3797 1.63196 11.3797 3.76196C11.3797 6.58346 11.3767 6.54746 11.6647 6.83546C12.0502 7.21946 12.9502 7.21946 13.3357 6.83546C13.6237 6.54746 13.6207 6.58346 13.6207 3.76196C13.6207 1.03196 13.6162 0.983964 13.3942 0.719964C13.2082 0.499464 13.0087 0.425964 12.5602 0.413964C12.3929 0.404536 12.2251 0.41157 12.0592 0.434964ZM4.62971 3.39896C4.39271 3.50696 4.04321 3.84896 3.92171 4.09196C3.85973 4.21344 3.82593 4.34732 3.82281 4.48366C3.81969 4.62 3.84734 4.75528 3.90371 4.87946C4.01471 5.12696 7.50071 8.62496 7.77521 8.76446C8.16371 8.96396 8.56271 8.86646 8.96471 8.47346C9.36071 8.08646 9.46571 7.66646 9.26471 7.27496C9.12521 7.00046 5.62721 3.51446 5.37971 3.40346C5.26144 3.35225 5.13405 3.32545 5.00517 3.32468C4.87629 3.32391 4.74858 3.34917 4.62971 3.39896ZM19.7797 3.42296C19.5952 3.50846 19.2802 3.80396 17.7772 5.31146C16.3957 6.69596 15.9742 7.14296 15.9067 7.28996C15.8506 7.41185 15.8217 7.54446 15.822 7.67863C15.8222 7.81279 15.8517 7.9453 15.9082 8.06696C16.0132 8.29196 16.3582 8.64596 16.5907 8.76746C16.8262 8.89046 17.1757 8.88896 17.4202 8.76446C17.6707 8.63546 21.1357 5.17046 21.2647 4.91996C21.3261 4.791 21.3584 4.65007 21.3592 4.50722C21.36 4.36436 21.3292 4.22309 21.2692 4.09346C21.1032 3.81587 20.8687 3.58552 20.5882 3.42446C20.4641 3.35741 20.3252 3.32217 20.1841 3.32191C20.0431 3.32165 19.9041 3.35637 19.7797 3.42296ZM1.54871 10.938C1.10621 11.0775 0.887207 11.43 0.887207 11.9985C0.888707 12.579 1.10471 12.927 1.54721 13.059C1.72421 13.1115 2.11871 13.1205 4.26221 13.1205C6.49571 13.1205 6.79421 13.113 6.97721 13.053C7.11163 13.0088 7.2338 12.9337 7.33385 12.8336C7.4339 12.7336 7.50904 12.6114 7.55321 12.477C7.68221 12.0795 7.61771 11.5155 7.41221 11.2365C7.32984 11.1469 7.23298 11.0719 7.12571 11.0145L6.92021 10.9005L4.32071 10.8915C2.22821 10.8855 1.68671 10.8945 1.54871 10.938ZM18.1177 10.917C17.9149 10.9728 17.7316 11.084 17.5882 11.238C17.3827 11.5155 17.3182 12.0795 17.4472 12.477C17.5342 12.747 17.7532 12.966 18.0232 13.053C18.2062 13.113 18.5047 13.1205 20.7382 13.1205C22.8817 13.1205 23.2762 13.1115 23.4532 13.059C23.8957 12.927 24.1117 12.579 24.1132 11.9985C24.1132 11.421 23.8927 11.0745 23.4352 10.9365C23.2807 10.89 22.7962 10.881 20.7442 10.884C19.3672 10.887 18.1852 10.902 18.1177 10.917ZM7.77971 15.423C7.59521 15.5085 7.28021 15.804 5.77721 17.3115C4.39571 18.696 3.97421 19.143 3.90671 19.29C3.85062 19.4118 3.82171 19.5445 3.82197 19.6786C3.82223 19.8128 3.85165 19.9453 3.90821 20.067C4.01321 20.292 4.35821 20.646 4.59071 20.7675C4.82621 20.8905 5.17571 20.889 5.42021 20.7645C5.67071 20.6355 9.13571 17.1705 9.26471 16.92C9.32615 16.791 9.3584 16.6501 9.35918 16.5072C9.35996 16.3644 9.32924 16.2231 9.26921 16.0935C9.10319 15.8159 8.86871 15.5855 8.58821 15.4245C8.46407 15.3574 8.32524 15.3222 8.18415 15.3219C8.04305 15.3216 7.9041 15.3564 7.77971 15.423ZM16.6297 15.399C16.3927 15.507 16.0432 15.849 15.9217 16.092C15.8597 16.2134 15.8259 16.3473 15.8228 16.4837C15.8197 16.62 15.8473 16.7553 15.9037 16.8795C16.0147 17.127 19.5007 20.625 19.7752 20.7645C20.1637 20.964 20.5627 20.8665 20.9647 20.4735C21.3607 20.0865 21.4657 19.6665 21.2647 19.275C21.1252 19.0005 17.6272 15.5145 17.3797 15.4035C17.2614 15.3523 17.134 15.3255 17.0052 15.3247C16.8763 15.3239 16.7486 15.3492 16.6297 15.399ZM12.1177 16.9155C11.9151 16.9726 11.7319 17.0841 11.5882 17.238C11.3812 17.517 11.3797 17.5365 11.3797 20.2335C11.3797 22.3815 11.3887 22.776 11.4412 22.953C11.5732 23.3955 11.9227 23.6115 12.5002 23.6115C13.0777 23.6115 13.4272 23.3955 13.5592 22.953C13.6522 22.635 13.6507 17.8125 13.5562 17.535C13.5272 17.4231 13.474 17.3189 13.4004 17.2298C13.3268 17.1406 13.2346 17.0687 13.1302 17.019C12.9652 16.929 12.8692 16.9065 12.5857 16.896C12.4295 16.8866 12.2726 16.8931 12.1177 16.9155Z" fill="white"/>
</g>
<defs>
<clipPath id="clip0_143_3008">
<rect width="24" height="24" fill="white" transform="translate(0.5)"/>
</clipPath>
</defs>
</svg>
